<?xml version="1.0" ?>
<svg xmlns="http://www.w3.org/2000/svg" xmlns:xlink="http://www.w3.org/1999/xlink">
	<defs>
		<marker id="Arrow1Lend" orient="auto" refX="0.0" refY="0.0" style="overflow:visible;">
			
              
			<path d="M 0.0,0.0 L 5.0,-5.0 L -12.5,0.0 L 5.0,5.0 L 0.0,0.0 z " id="path3666" style="fill-rule:evenodd;stroke:#000000;stroke-width:1.0pt;marker-start:none;" transform="scale(0.8) rotate(180) translate(12.5,0)"/>
			
            
		</marker>
		<filter filterRes="100" id="DropShadow" x="0" y="0">
			
               
			<feGaussianBlur result="MyBlur" stdDeviation="3"/>
			
               
			<feOffset dx="2" dy="4" in="MyBlur" result="movedBlur"/>
			
               
			<feMerge>
				
                   
				<feMergeNode in="movedBlur"/>
				
                   
				<feMergeNode in="SourceGraphic"/>
				
               
			</feMerge>
			
          
		</filter>
	</defs>
	<g style="stroke:#000000;fill:#fff">
		<path d="M 525.575,350.5 L 525.575,305.0" id="" style="filter:url(#DropShadow);stroke:#000000;marker-end:url(#Arrow1Lend);marker-start:none;stroke-width:3.000000px;fill:none"/>
		<path d="M 525.575,201.5 L 525.575,247.0" id="" style="filter:url(#DropShadow);stroke:#000000;marker-end:url(#Arrow1Lend);marker-start:none;stroke-width:3.000000px;fill:none"/>
		<path d="M 460.143,276.0 L 387.776,276.0" id="" style="filter:url(#DropShadow);stroke:#000000;marker-end:url(#Arrow1Lend);marker-start:none;stroke-width:3.000000px;fill:none"/>
		<path d="M 256.912,276.0 L 190.364,276.0" id="" style="filter:url(#DropShadow);stroke:#000000;marker-end:url(#Arrow1Lend);marker-start:none;stroke-width:3.000000px;fill:none"/>
		<rect height="55.0" id="" rx="5" ry="5" style="stroke:#28502c;stroke-width:3.000000px;fill:#baffb3" width="127.864" x="461.643" y="248.5"/>
		<text id="" style="fill:#000000;font-family: Geneva;font-size:14pt" text-anchor="middle" x="525.575" y="276.0">
			<tspan id="" x="525.575" y="283.0">
				f30ab
			</tspan>
		</text>
		<rect height="55.0" id="" rx="5" ry="5" style="stroke:#28502c;stroke-width:3.000000px;fill:#baffb3" width="127.864" x="258.412" y="248.5"/>
		<text id="" style="fill:#000000;font-family: Geneva;font-size:14pt" text-anchor="middle" x="322.344" y="276.0">
			<tspan id="" x="322.344" y="283.0">
				34ac2
			</tspan>
		</text>
		<rect height="55.0" id="" rx="5" ry="5" style="stroke:#28502c;stroke-width:3.000000px;fill:#baffb3" width="127.864" x="61.0" y="248.5"/>
		<text id="" style="fill:#000000;font-family: Geneva;font-size:14pt" text-anchor="middle" x="124.932" y="276.0">
			<tspan id="" x="124.932" y="283.0">
				98ca9
			</tspan>
		</text>
		<path d="M 525.575,98.0 L 525.575,143.5" id="" style="filter:url(#DropShadow);stroke:#000000;marker-end:url(#Arrow1Lend);marker-start:none;stroke-width:3.000000px;fill:none"/>
		<rect height="55.0" id="" rx="5" ry="5" style="stroke:#272525;stroke-width:3.000000px;fill:#484a49" width="112.38" x="469.385" y="41.5"/>
		<text id="" style="fill:#ffffff;font-family: Geneva;font-size:14pt" text-anchor="middle" x="525.575" y="69.0">
			<tspan id="" x="525.575" y="76.0">
				HEAD
			</tspan>
		</text>
		<rect height="55.0" id="" rx="5" ry="5" style="stroke:#504c4d;stroke-width:3.000000px;fill:#d2d7d5" width="112.38" x="469.385" y="352.0"/>
		<text id="" style="fill:#000000;font-family: Geneva;font-size:14pt" text-anchor="middle" x="525.575" y="379.5">
			<tspan id="" x="525.575" y="386.5">
				testing
			</tspan>
		</text>
		<rect height="55.0" id="" rx="5" ry="5" style="stroke:#504c4d;stroke-width:3.000000px;fill:#d2d7d5" width="112.38" x="469.385" y="145.0"/>
		<text id="" style="fill:#000000;font-family: Geneva;font-size:14pt" text-anchor="middle" x="525.575" y="172.5">
			<tspan id="" x="525.575" y="179.5">
				master
			</tspan>
		</text>
	</g>
</svg>
