<?xml version="1.0" ?>
<svg xmlns="http://www.w3.org/2000/svg" xmlns:xlink="http://www.w3.org/1999/xlink">
	<defs>
		<marker id="Arrow1Lend" orient="auto" refX="0.0" refY="0.0" style="overflow:visible;">
			
              
			<path d="M 0.0,0.0 L 5.0,-5.0 L -12.5,0.0 L 5.0,5.0 L 0.0,0.0 z " id="path3666" style="fill-rule:evenodd;stroke:#000000;stroke-width:1.0pt;marker-start:none;" transform="scale(0.8) rotate(180) translate(12.5,0)"/>
			
            
		</marker>
		<filter filterRes="100" id="DropShadow" x="0" y="0">
			
               
			<feGaussianBlur result="MyBlur" stdDeviation="3"/>
			
               
			<feOffset dx="2" dy="4" in="MyBlur" result="movedBlur"/>
			
               
			<feMerge>
				
                   
				<feMergeNode in="movedBlur"/>
				
                   
				<feMergeNode in="SourceGraphic"/>
				
               
			</feMerge>
			
          
		</filter>
	</defs>
	<g style="stroke:#000000;fill:#fff">
		<path d="M 207.006,245.0 L 148.88,245.0" id="" style="filter:url(#DropShadow);stroke:#000000;marker-end:url(#Arrow1Lend);marker-start:none;stroke-width:3.000000px;fill:none"/>
		<path d="M 385.627,245.0 L 322.386,245.0" id="" style="filter:url(#DropShadow);stroke:#000000;marker-end:url(#Arrow1Lend);marker-start:none;stroke-width:3.000000px;fill:none"/>
		<rect height="55.0" id="" rx="5" ry="5" style="stroke:#28502c;stroke-width:3.000000px;fill:#baffb3" width="112.38" x="387.127" y="217.5"/>
		<text id="" style="fill:#000000;font-family: Geneva;font-size:14pt" text-anchor="middle" x="443.317" y="245.0">
			<tspan id="" x="443.317" y="252.0">
				f30ab
			</tspan>
		</text>
		<rect height="55.0" id="" rx="5" ry="5" style="stroke:#28502c;stroke-width:3.000000px;fill:#baffb3" width="112.38" x="208.506" y="217.5"/>
		<text id="" style="fill:#000000;font-family: Geneva;font-size:14pt" text-anchor="middle" x="264.696" y="245.0">
			<tspan id="" x="264.696" y="252.0">
				34ac2
			</tspan>
		</text>
		<rect height="55.0" id="" rx="5" ry="5" style="stroke:#28502c;stroke-width:3.000000px;fill:#baffb3" width="112.38" x="35.0" y="217.5"/>
		<text id="" style="fill:#000000;font-family: Geneva;font-size:14pt" text-anchor="middle" x="91.19" y="245.0">
			<tspan id="" x="91.19" y="252.0">
				98ca9
			</tspan>
		</text>
		<path d="M 564.248,245.0 L 501.007,245.0" id="" style="filter:url(#DropShadow);stroke:#000000;marker-end:url(#Arrow1Lend);marker-start:none;stroke-width:3.000000px;fill:none"/>
		<rect height="55.0" id="" rx="5" ry="5" style="stroke:#28502c;stroke-width:3.000000px;fill:#baffb3" width="112.38" x="565.748" y="217.5"/>
		<text id="" style="fill:#000000;font-family: Geneva;font-size:14pt" text-anchor="middle" x="621.938" y="245.0">
			<tspan id="" x="621.938" y="252.0">
				c2b9e
			</tspan>
		</text>
		<path d="M 443.317,67.0 L 443.317,112.5" id="" style="filter:url(#DropShadow);stroke:#000000;marker-end:url(#Arrow1Lend);marker-start:none;stroke-width:3.000000px;fill:none"/>
		<rect height="55.0" id="" rx="5" ry="5" style="stroke:#272525;stroke-width:3.000000px;fill:#484a49" width="112.38" x="387.127" y="10.5"/>
		<text id="" style="fill:#ffffff;font-family: Geneva;font-size:14pt" text-anchor="middle" x="443.317" y="38.0">
			<tspan id="" x="443.317" y="45.0">
				HEAD
			</tspan>
		</text>
		<path d="M 621.938,319.5 L 621.938,274.0" id="" style="filter:url(#DropShadow);stroke:#000000;marker-end:url(#Arrow1Lend);marker-start:none;stroke-width:3.000000px;fill:none"/>
		<rect height="55.0" id="" rx="5" ry="5" style="stroke:#504c4d;stroke-width:3.000000px;fill:#d2d7d5" width="112.38" x="565.748" y="321.0"/>
		<text id="" style="fill:#000000;font-family: Geneva;font-size:14pt" text-anchor="middle" x="621.938" y="348.5">
			<tspan id="" x="621.938" y="355.5">
				testing
			</tspan>
		</text>
		<path d="M 443.317,170.5 L 443.317,216.0" id="" style="filter:url(#DropShadow);stroke:#000000;marker-end:url(#Arrow1Lend);marker-start:none;stroke-width:3.000000px;fill:none"/>
		<rect height="55.0" id="" rx="5" ry="5" style="stroke:#504c4d;stroke-width:3.000000px;fill:#d2d7d5" width="112.38" x="387.127" y="114.0"/>
		<text id="" style="fill:#000000;font-family: Geneva;font-size:14pt" text-anchor="middle" x="443.317" y="141.5">
			<tspan id="" x="443.317" y="148.5">
				master
			</tspan>
		</text>
	</g>
</svg>
