<?xml version="1.0" ?>
<svg xmlns="http://www.w3.org/2000/svg" xmlns:xlink="http://www.w3.org/1999/xlink">
	<defs>
		<marker id="Arrow1Lend" orient="auto" refX="0.0" refY="0.0" style="overflow:visible;">
			
              
			<path d="M 0.0,0.0 L 5.0,-5.0 L -12.5,0.0 L 5.0,5.0 L 0.0,0.0 z " id="path3666" style="fill-rule:evenodd;stroke:#000000;stroke-width:1.0pt;marker-start:none;" transform="scale(0.8) rotate(180) translate(12.5,0)"/>
			
            
		</marker>
		<filter filterRes="100" id="DropShadow" x="0" y="0">
			
               
			<feGaussianBlur result="MyBlur" stdDeviation="3"/>
			
               
			<feOffset dx="2" dy="4" in="MyBlur" result="movedBlur"/>
			
               
			<feMerge>
				
                   
				<feMergeNode in="movedBlur"/>
				
                   
				<feMergeNode in="SourceGraphic"/>
				
               
			</feMerge>
			
          
		</filter>
	</defs>
	<g style="stroke:#000000;fill:#fff">
		<rect height="29.0" id="" style="stroke:none" width="61.0" x="489.0" y="327.537"/>
		<text id="" style="fill:#000000;font-family: Monaco;font-size:14pt" text-anchor="middle" x="519.5" y="342.037">
			<tspan id="" x="519.5" y="349.037">
				git.rb
			</tspan>
		</text>
		<rect height="29.0" id="" style="stroke:none" width="36.0" x="422.306" y="220.613"/>
		<text id="" style="fill:#000000;font-family: Monaco;font-size:14pt" text-anchor="middle" x="440.306" y="235.113">
			<tspan id="" x="440.306" y="242.113">
				lib
			</tspan>
		</text>
		<rect height="29.0" id="" style="stroke:none" width="78.0" x="317.5" y="219.5"/>
		<text id="" style="fill:#000000;font-family: Monaco;font-size:14pt" text-anchor="middle" x="356.5" y="234.0">
			<tspan id="" x="356.5" y="241.0">
				Rakefile
			</tspan>
		</text>
		<rect height="29.0" id="" style="stroke:none" width="61.0" x="243.361" y="219.797"/>
		<text id="" style="fill:#000000;font-family: Monaco;font-size:14pt" text-anchor="middle" x="273.861" y="234.297">
			<tspan id="" x="273.861" y="241.297">
				README
			</tspan>
		</text>
		<path d="M 519.5,319.5 L 519.5,375.5" id="" style="filter:url(#DropShadow);marker-start:none;stroke:#000000;marker-end:url(#Arrow1Lend);fill:none"/>
		<path d="M 397.049,204.86 L 478.951,262.14" id="" style="filter:url(#DropShadow);marker-start:none;stroke:#000000;marker-end:url(#Arrow1Lend);fill:none"/>
		<path d="M 315.951,204.86 L 234.049,262.14" id="" style="filter:url(#DropShadow);marker-start:none;stroke:#000000;marker-end:url(#Arrow1Lend);fill:none"/>
		<path d="M 356.5,205.5 L 356.5,261.5" id="" style="filter:url(#DropShadow);marker-start:none;stroke:#000000;marker-end:url(#Arrow1Lend);fill:none"/>
		<rect height="55.0" id="" rx="5" ry="5" style="stroke:#500b0b;stroke-width:3.000000px;fill:#ffbfbd" width="95.0" x="472.0" y="377.0"/>
		<text id="" style="fill:#ffffff;font-family: Geneva;font-size:14pt" text-anchor="middle" x="519.5" y="404.5">
			<tspan id="" x="519.5" y="411.5">
				blob
			</tspan>
		</text>
		<rect height="55.0" id="" rx="5" ry="5" style="stroke:#500b0b;stroke-width:3.000000px;fill:#ffbfbd" width="95.0" x="309.0" y="263.0"/>
		<text id="" style="fill:#ffffff;font-family: Geneva;font-size:14pt" text-anchor="middle" x="356.5" y="290.5">
			<tspan id="" x="356.5" y="297.5">
				blob
			</tspan>
		</text>
		<rect height="55.0" id="" rx="5" ry="5" style="stroke:#500b0b;stroke-width:3.000000px;fill:#ffbfbd" width="95.0" x="146.0" y="263.0"/>
		<text id="" style="fill:#ffffff;font-family: Geneva;font-size:14pt" text-anchor="middle" x="193.5" y="290.5">
			<tspan id="" x="193.5" y="297.5">
				blob
			</tspan>
		</text>
		<rect height="55.0" id="" rx="5" ry="5" style="stroke:#1b2350;stroke-width:3.000000px;fill:#d0ceff" width="95.0" x="472.0" y="263.0"/>
		<text id="" style="fill:#ffffff;font-family: Geneva;font-size:14pt" text-anchor="middle" x="519.5" y="290.5">
			<tspan id="" x="519.5" y="297.5">
				tree
			</tspan>
		</text>
		<rect height="55.0" id="" rx="5" ry="5" style="stroke:#1b2350;stroke-width:3.000000px;fill:#d0ceff" width="95.0" x="309.0" y="149.0"/>
		<text id="" style="fill:#ffffff;font-family: Geneva;font-size:14pt" text-anchor="middle" x="356.5" y="176.5">
			<tspan id="" x="356.5" y="183.5">
				tree
			</tspan>
		</text>
	</g>
</svg>
