<?xml version="1.0" ?>
<svg xmlns="http://www.w3.org/2000/svg" xmlns:xlink="http://www.w3.org/1999/xlink">
	<defs>
		<marker id="Arrow1Lend" orient="auto" refX="0.0" refY="0.0" style="overflow:visible;">
			
              
			<path d="M 0.0,0.0 L 5.0,-5.0 L -12.5,0.0 L 5.0,5.0 L 0.0,0.0 z " id="path3666" style="fill-rule:evenodd;stroke:#000000;stroke-width:1.0pt;marker-start:none;" transform="scale(0.8) rotate(180) translate(12.5,0)"/>
			
            
		</marker>
		<filter filterRes="100" id="DropShadow" x="0" y="0">
			
               
			<feGaussianBlur result="MyBlur" stdDeviation="3"/>
			
               
			<feOffset dx="2" dy="4" in="MyBlur" result="movedBlur"/>
			
               
			<feMerge>
				
                   
				<feMergeNode in="movedBlur"/>
				
                   
				<feMergeNode in="SourceGraphic"/>
				
               
			</feMerge>
			
          
		</filter>
	</defs>
	<g style="stroke:#000000;fill:#fff">
		<rect height="14.0" id="" style="stroke:none;fill:none" width="47.9053" x="204.474" y="73.5794"/>
		<text id="" style="font-family: Monaco;font-size:10pt" text-anchor="middle" x="228.42665" y="80.5794">
			<tspan id="" x="228.42665" y="85.5794">
				1a410e
			</tspan>
		</text>
		<rect height="14.0" id="" style="stroke:none;fill:none" width="47.9053" x="204.474" y="212.0"/>
		<text id="" style="font-family: Monaco;font-size:10pt" text-anchor="middle" x="228.42665" y="219.0">
			<tspan id="" x="228.42665" y="224.0">
				cac0ca
			</tspan>
		</text>
		<path d="M 158.5,234.994 L 196.5,235.561" id="" style="filter:url(#DropShadow);marker-start:none;stroke:#000000;marker-end:url(#Arrow1Lend);fill:none"/>
		<path d="M 158.5,98.0794 L 196.5,98.0794" id="" style="filter:url(#DropShadow);marker-start:none;stroke:#000000;marker-end:url(#Arrow1Lend);fill:none"/>
		<rect height="55.0" id="" rx="5" ry="5" style="stroke:#4f504c;stroke-width:3.000000px;fill:#dcdfd4" width="141.0" x="16.0" y="206.421"/>
		<text id="" style="fill:#ffffff;font-family: Geneva;font-size:12pt" text-anchor="middle" x="86.5" y="233.921">
			<tspan id="" x="86.5" y="239.921">
				refs/heads/test
			</tspan>
		</text>
		<rect height="55.0" id="" rx="5" ry="5" style="stroke:#4f504c;stroke-width:3.000000px;fill:#dcdfd4" width="141.0" x="16.0" y="70.5794"/>
		<text id="" style="fill:#ffffff;font-family: Geneva;font-size:12pt" text-anchor="middle" x="86.5" y="98.0794">
			<tspan id="" x="86.5" y="104.0794">
				refs/heads/master
			</tspan>
		</text>
		<rect height="29.0" id="" style="stroke:none" width="78.0" x="498.565" y="124.7"/>
		<text id="" style="fill:#000000;font-family: Monaco;font-size:14pt" text-anchor="middle" x="537.565" y="139.2">
			<tspan id="" x="537.565" y="146.2">
				test.txt
			</tspan>
		</text>
		<rect height="29.0" id="" style="stroke:none" width="69.0" x="502.758" y="83.5794"/>
		<text id="" style="fill:#000000;font-family: Monaco;font-size:14pt" text-anchor="middle" x="537.258" y="98.0794">
			<tspan id="" x="537.258" y="105.0794">
				new.txt
			</tspan>
		</text>
		<rect height="29.0" id="" style="stroke:none" width="36.0" x="500.949" y="38.5"/>
		<text id="" style="fill:#000000;font-family: Monaco;font-size:14pt" text-anchor="middle" x="518.949" y="53.0">
			<tspan id="" x="518.949" y="60.0">
				bak
			</tspan>
		</text>
		<path d="M 460.862,69.5187 L 477.381,53.0  L 743.801,53.0  L 743.801,431.0  L 487.801,431.0  L 460.572,403.487" id="" style="filter:url(#DropShadow);marker-start:none;stroke:#000000;marker-end:url(#Arrow1Lend);fill:none"/>
		<path d="M 481.301,98.0794 L 726.801,98.0794  L 726.801,280.0  L 708.724,280.248" id="" style="filter:url(#DropShadow);marker-start:none;stroke:#000000;marker-end:url(#Arrow1Lend);fill:none"/>
		<path d="M 481.198,117.181 L 610.827,167.82" id="" style="filter:url(#DropShadow);marker-start:none;stroke:#000000;marker-end:url(#Arrow1Lend);fill:none"/>
		<path d="M 322.5,98.0794 L 383.301,98.0794" id="" style="filter:url(#DropShadow);marker-start:none;stroke:#000000;marker-end:url(#Arrow1Lend);fill:none"/>
		<rect height="14.0" id="" style="stroke:none;fill:none" width="37.0" x="390.301" y="72.5794"/>
		<text id="" style="font-family: Monaco;font-size:10pt" text-anchor="middle" x="408.801" y="79.5794">
			<tspan id="" x="408.801" y="84.5794">
				3c4e9c
			</tspan>
		</text>
		<rect height="55.0" id="" rx="5" ry="5" style="stroke:#1b2350;stroke-width:3.000000px;fill:#d0ceff" width="95.0" x="384.801" y="70.5794"/>
		<text id="" style="fill:#ffffff;font-family: Geneva;font-size:14pt" text-anchor="middle" x="432.301" y="98.0794">
			<tspan id="" x="432.301" y="105.0794">
				tree
			</tspan>
		</text>
		<path d="M 259.5,127.079 L 259.5,207.5" id="" style="filter:url(#DropShadow);marker-start:none;stroke:#000000;marker-end:url(#Arrow1Lend);fill:none"/>
		<path d="M 259.5,265.5 L 259.5,345.921" id="" style="filter:url(#DropShadow);marker-start:none;stroke:#000000;marker-end:url(#Arrow1Lend);fill:none"/>
		<path d="M 322.5,235.56 L 383.301,234.652" id="" style="filter:url(#DropShadow);marker-start:none;stroke:#000000;marker-end:url(#Arrow1Lend);fill:none"/>
		<path d="M 322.5,374.921 L 383.301,374.921" id="" style="filter:url(#DropShadow);marker-start:none;stroke:#000000;marker-end:url(#Arrow1Lend);fill:none"/>
		<rect height="55.0" id="" rx="5" ry="5" style="stroke:#295029;stroke-width:3.000000px;fill:#abffac" width="123.0" x="198.0" y="70.5794"/>
		<text id="" style="fill:#ffffff;font-family: Geneva;font-size:14pt" text-anchor="middle" x="259.5" y="98.0794">
			<tspan id="" x="259.5" y="105.0794">
				third commit
			</tspan>
		</text>
		<rect height="55.0" id="" rx="5" ry="5" style="stroke:#295029;stroke-width:3.000000px;fill:#abffac" width="123.0" x="198.0" y="209.0"/>
		<text id="" style="fill:#ffffff;font-family: Geneva;font-size:14pt" text-anchor="middle" x="259.5" y="236.5">
			<tspan id="" x="259.5" y="243.5">
				second commit
			</tspan>
		</text>
		<rect height="14.0" id="" style="stroke:none;fill:none" width="47.9053" x="204.474" y="350.421"/>
		<text id="" style="font-family: Monaco;font-size:10pt" text-anchor="middle" x="228.42665" y="357.421">
			<tspan id="" x="228.42665" y="362.421">
				fdf4fc
			</tspan>
		</text>
		<rect height="55.0" id="" rx="5" ry="5" style="stroke:#295029;stroke-width:3.000000px;fill:#abffac" width="123.0" x="198.0" y="347.421"/>
		<text id="" style="fill:#ffffff;font-family: Geneva;font-size:14pt" text-anchor="middle" x="259.5" y="374.921">
			<tspan id="" x="259.5" y="381.921">
				first commit
			</tspan>
		</text>
		<rect height="14.0" id="" style="stroke:none;fill:none" width="37.0" x="617.224" y="350.421"/>
		<text id="" style="font-family: Monaco;font-size:10pt" text-anchor="middle" x="635.724" y="357.421">
			<tspan id="" x="635.724" y="362.421">
				83baae
			</tspan>
		</text>
		<rect height="14.0" id="" style="stroke:none;fill:none" width="37.0" x="390.801" y="350.421"/>
		<text id="" style="font-family: Monaco;font-size:10pt" text-anchor="middle" x="409.301" y="357.421">
			<tspan id="" x="409.301" y="362.421">
				d8329f
			</tspan>
		</text>
		<rect height="14.0" id="" style="stroke:none;fill:none" width="37.0" x="617.724" y="161.421"/>
		<text id="" style="font-family: Monaco;font-size:10pt" text-anchor="middle" x="636.224" y="168.421">
			<tspan id="" x="636.224" y="173.421">
				1f7a7a
			</tspan>
		</text>
		<rect height="14.0" id="" style="stroke:none;fill:none" width="37.0" x="617.224" y="256.421"/>
		<text id="" style="font-family: Monaco;font-size:10pt" text-anchor="middle" x="635.724" y="263.421">
			<tspan id="" x="635.724" y="268.421">
				fa49b0
			</tspan>
		</text>
		<rect height="14.0" id="" style="stroke:none;fill:none" width="37.0" x="390.301" y="208.421"/>
		<text id="" style="font-family: Monaco;font-size:10pt" text-anchor="middle" x="408.801" y="215.421">
			<tspan id="" x="408.801" y="220.421">
				0155eb
			</tspan>
		</text>
		<rect height="29.0" id="" style="stroke:none" width="78.0" x="502.774" y="360.421"/>
		<text id="" style="fill:#000000;font-family: Monaco;font-size:14pt" text-anchor="middle" x="541.774" y="374.921">
			<tspan id="" x="541.774" y="381.921">
				test.txt
			</tspan>
		</text>
		<rect height="29.0" id="" style="stroke:none" width="78.0" x="500.56" y="197.254"/>
		<text id="" style="fill:#000000;font-family: Monaco;font-size:14pt" text-anchor="middle" x="539.56" y="211.754">
			<tspan id="" x="539.56" y="218.754">
				test.txt
			</tspan>
		</text>
		<rect height="29.0" id="" style="stroke:none" width="69.0" x="502.786" y="241.117"/>
		<text id="" style="fill:#000000;font-family: Monaco;font-size:14pt" text-anchor="middle" x="537.286" y="255.617">
			<tspan id="" x="537.286" y="262.617">
				new.txt
			</tspan>
		</text>
		<path d="M 481.301,374.921 L 610.724,374.921" id="" style="filter:url(#DropShadow);marker-start:none;stroke:#000000;marker-end:url(#Arrow1Lend);fill:none"/>
		<path d="M 481.27,244.041 L 610.755,270.801" id="" style="filter:url(#DropShadow);marker-start:none;stroke:#000000;marker-end:url(#Arrow1Lend);fill:none"/>
		<path d="M 481.27,223.801 L 610.755,197.041" id="" style="filter:url(#DropShadow);marker-start:none;stroke:#000000;marker-end:url(#Arrow1Lend);fill:none"/>
		<rect height="55.0" id="" rx="5" ry="5" style="stroke:#500b0b;stroke-width:3.000000px;fill:#ffbfbd" width="95.0" x="612.224" y="347.421"/>
		<text id="" style="fill:#ffffff;font-family: Geneva;font-size:14pt" text-anchor="middle" x="659.724" y="374.921">
			<tspan id="" x="659.724" y="381.921">
				&quot;version 1&quot;
			</tspan>
		</text>
		<rect height="55.0" id="" rx="5" ry="5" style="stroke:#500b0b;stroke-width:3.000000px;fill:#ffbfbd" width="95.0" x="612.224" y="159.421"/>
		<text id="" style="fill:#ffffff;font-family: Geneva;font-size:14pt" text-anchor="middle" x="659.724" y="186.921">
			<tspan id="" x="659.724" y="193.921">
				&quot;version 2&quot;
			</tspan>
		</text>
		<rect height="55.0" id="" rx="5" ry="5" style="stroke:#500b0b;stroke-width:3.000000px;fill:#ffbfbd" width="95.0" x="612.224" y="253.421"/>
		<text id="" style="fill:#ffffff;font-family: Geneva;font-size:14pt" text-anchor="middle" x="659.724" y="280.921">
			<tspan id="" x="659.724" y="287.921">
				&quot;new file&quot;
			</tspan>
		</text>
		<rect height="55.0" id="" rx="5" ry="5" style="stroke:#1b2350;stroke-width:3.000000px;fill:#d0ceff" width="95.0" x="384.801" y="347.421"/>
		<text id="" style="fill:#ffffff;font-family: Geneva;font-size:14pt" text-anchor="middle" x="432.301" y="374.921">
			<tspan id="" x="432.301" y="381.921">
				tree
			</tspan>
		</text>
		<rect height="55.0" id="" rx="5" ry="5" style="stroke:#1b2350;stroke-width:3.000000px;fill:#d0ceff" width="95.0" x="384.801" y="206.421"/>
		<text id="" style="fill:#ffffff;font-family: Geneva;font-size:14pt" text-anchor="middle" x="432.301" y="233.921">
			<tspan id="" x="432.301" y="240.921">
				tree
			</tspan>
		</text>
	</g>
</svg>
