<?xml version="1.0" ?>
<svg xmlns="http://www.w3.org/2000/svg" xmlns:xlink="http://www.w3.org/1999/xlink">
	<defs>
		<marker id="Arrow1Lend" orient="auto" refX="0.0" refY="0.0" style="overflow:visible;">
			
              
			<path d="M 0.0,0.0 L 5.0,-5.0 L -12.5,0.0 L 5.0,5.0 L 0.0,0.0 z " id="path3666" style="fill-rule:evenodd;stroke:#000000;stroke-width:1.0pt;marker-start:none;" transform="scale(0.8) rotate(180) translate(12.5,0)"/>
			
            
		</marker>
		<filter filterRes="100" id="DropShadow" x="0" y="0">
			
               
			<feGaussianBlur result="MyBlur" stdDeviation="3"/>
			
               
			<feOffset dx="2" dy="4" in="MyBlur" result="movedBlur"/>
			
               
			<feMerge>
				
                   
				<feMergeNode in="movedBlur"/>
				
                   
				<feMergeNode in="SourceGraphic"/>
				
               
			</feMerge>
			
          
		</filter>
	</defs>
	<g style="stroke:#000000;fill:#fff">
		<path d="M 295.006,210.0 L 236.88,210.0" id="" style="filter:url(#DropShadow);stroke:#000000;marker-end:url(#Arrow1Lend);marker-start:none;stroke-width:3.000000px;fill:none"/>
		<path d="M 473.627,210.0 L 410.386,210.0" id="" style="filter:url(#DropShadow);stroke:#000000;marker-end:url(#Arrow1Lend);marker-start:none;stroke-width:3.000000px;fill:none"/>
		<path d="M 531.317,284.5 L 531.317,239.0" id="" style="filter:url(#DropShadow);stroke:#000000;marker-end:url(#Arrow1Lend);marker-start:none;stroke-width:3.000000px;fill:none"/>
		<path d="M 531.317,135.5 L 531.317,181.0" id="" style="filter:url(#DropShadow);stroke:#000000;marker-end:url(#Arrow1Lend);marker-start:none;stroke-width:3.000000px;fill:none"/>
		<path d="M 531.317,388.0 L 531.317,342.5" id="" style="filter:url(#DropShadow);stroke:#000000;marker-end:url(#Arrow1Lend);marker-start:none;stroke-width:3.000000px;fill:none"/>
		<rect height="55.0" id="" rx="5" ry="5" style="stroke:#272525;stroke-width:3.000000px;fill:#484a49" width="112.38" x="475.127" y="389.5"/>
		<text id="" style="fill:#ffffff;font-family: Geneva;font-size:14pt" text-anchor="middle" x="531.317" y="417.0">
			<tspan id="" x="531.317" y="424.0">
				HEAD
			</tspan>
		</text>
		<rect height="55.0" id="" rx="5" ry="5" style="stroke:#504c4d;stroke-width:3.000000px;fill:#d2d7d5" width="112.38" x="475.127" y="286.0"/>
		<text id="" style="fill:#000000;font-family: Geneva;font-size:14pt" text-anchor="middle" x="531.317" y="313.5">
			<tspan id="" x="531.317" y="320.5">
				testing
			</tspan>
		</text>
		<rect height="55.0" id="" rx="5" ry="5" style="stroke:#504c4d;stroke-width:3.000000px;fill:#d2d7d5" width="112.38" x="475.127" y="79.0"/>
		<text id="" style="fill:#000000;font-family: Geneva;font-size:14pt" text-anchor="middle" x="531.317" y="106.5">
			<tspan id="" x="531.317" y="113.5">
				master
			</tspan>
		</text>
		<rect height="55.0" id="" rx="5" ry="5" style="stroke:#28502c;stroke-width:3.000000px;fill:#baffb3" width="112.38" x="475.127" y="182.5"/>
		<text id="" style="fill:#000000;font-family: Geneva;font-size:14pt" text-anchor="middle" x="531.317" y="210.0">
			<tspan id="" x="531.317" y="217.0">
				f30ab
			</tspan>
		</text>
		<rect height="55.0" id="" rx="5" ry="5" style="stroke:#28502c;stroke-width:3.000000px;fill:#baffb3" width="112.38" x="296.506" y="182.5"/>
		<text id="" style="fill:#000000;font-family: Geneva;font-size:14pt" text-anchor="middle" x="352.696" y="210.0">
			<tspan id="" x="352.696" y="217.0">
				34ac2
			</tspan>
		</text>
		<rect height="55.0" id="" rx="5" ry="5" style="stroke:#28502c;stroke-width:3.000000px;fill:#baffb3" width="112.38" x="123.0" y="182.5"/>
		<text id="" style="fill:#000000;font-family: Geneva;font-size:14pt" text-anchor="middle" x="179.19" y="210.0">
			<tspan id="" x="179.19" y="217.0">
				98ca9
			</tspan>
		</text>
	</g>
</svg>
