<?xml version="1.0" ?>
<svg xmlns="http://www.w3.org/2000/svg" xmlns:xlink="http://www.w3.org/1999/xlink">
	<defs>
		<marker id="Arrow1Lend" orient="auto" refX="0.0" refY="0.0" style="overflow:visible;">
			
              
			<path d="M 0.0,0.0 L 5.0,-5.0 L -12.5,0.0 L 5.0,5.0 L 0.0,0.0 z " id="path3666" style="fill-rule:evenodd;stroke:#000000;stroke-width:1.0pt;marker-start:none;" transform="scale(0.8) rotate(180) translate(12.5,0)"/>
			
            
		</marker>
		<filter filterRes="100" id="DropShadow" x="0" y="0">
			
               
			<feGaussianBlur result="MyBlur" stdDeviation="3"/>
			
               
			<feOffset dx="2" dy="4" in="MyBlur" result="movedBlur"/>
			
               
			<feMerge>
				
                   
				<feMergeNode in="movedBlur"/>
				
                   
				<feMergeNode in="SourceGraphic"/>
				
               
			</feMerge>
			
          
		</filter>
	</defs>
	<g style="stroke:#000000;fill:#fff">
		<path d="M 334.018,122.079 L 466.0,122.0  L 465.94,174.175" id="" style="filter:url(#DropShadow);marker-start:none;stroke:#000000;marker-end:url(#Arrow1Lend);fill:none"/>
		<path d="M 310.526,71.0814 L 529.0,71.0  L 528.879,174.175" id="" style="filter:url(#DropShadow);marker-start:none;stroke:#000000;marker-end:url(#Arrow1Lend);fill:none"/>
		<path d="M 325.452,288.976 L 400.005,290.0  L 402.151,247.409" id="" style="filter:url(#DropShadow);marker-start:none;stroke:#000000;marker-end:url(#Arrow1Lend);fill:none"/>
		<path d="M 299.809,335.045 L 466.0,335.0  L 465.881,247.411" id="" style="filter:url(#DropShadow);marker-start:none;stroke:#000000;marker-end:url(#Arrow1Lend);fill:none"/>
		<path d="M 271.452,381.357 L 529.0,381.0  L 528.875,247.411" id="" style="filter:url(#DropShadow);marker-start:none;stroke:#000000;marker-end:url(#Arrow1Lend);fill:none"/>
		<rect height="25.1959" id="" style="stroke:#616161;stroke-width:3.000000px;fill:#d3f5d6" width="34.7993" x="223.0" y="276.118"/>
		<text id="" style="fill:#000000;font-family: Courier New;font-size:12pt" text-anchor="middle" x="240.39965" y="289.71595">
			<tspan id="" x="240.39965" y="295.71595">
				C3
			</tspan>
		</text>
		<rect height="25.1959" id="" style="stroke:#616161;stroke-width:3.000000px;fill:#d3f5d6" width="34.7993" x="125.504" y="202.73"/>
		<text id="" style="fill:#000000;font-family: Courier New;font-size:12pt" text-anchor="middle" x="142.90365" y="216.32795">
			<tspan id="" x="142.90365" y="222.32795">
				C2
			</tspan>
		</text>
		<rect height="25.1959" id="" style="stroke:#616161;stroke-width:3.000000px;fill:#d3f5d6" width="34.7993" x="60.606" y="203.377"/>
		<text id="" style="fill:#000000;font-family: Courier New;font-size:12pt" text-anchor="middle" x="78.00565" y="216.97495">
			<tspan id="" x="78.00565" y="222.97495">
				C1
			</tspan>
		</text>
		<rect height="25.1959" id="" style="stroke:#616161;stroke-width:3.000000px;fill:#d3f5d6" width="34.7993" x="289.154" y="276.118"/>
		<text id="" style="fill:#000000;font-family: Courier New;font-size:12pt" text-anchor="middle" x="306.55365" y="289.71595">
			<tspan id="" x="306.55365" y="295.71595">
				C4
			</tspan>
		</text>
		<path d="M 287.654,288.716 L 259.299,288.716" id="" style="filter:url(#DropShadow);marker-start:none;stroke:#000000;marker-end:url(#Arrow1Lend);fill:none"/>
		<path d="M 223.467,278.529 L 190.401,258.637  L 157.434,228.577" id="" style="filter:url(#DropShadow);marker-start:none;stroke:#000000;marker-end:url(#Arrow1Lend);fill:none"/>
		<path d="M 124.005,215.516 L 96.9047,215.787" id="" style="filter:url(#DropShadow);marker-start:none;stroke:#000000;marker-end:url(#Arrow1Lend);fill:none"/>
		<path d="M 59.106,215.975 L 19.0,215.975" id="" style="filter:url(#DropShadow);marker-start:none;stroke:#000000;marker-end:url(#Arrow1Lend);fill:none"/>
		<path d="M 348.214,289.031 L 325.453,288.859" id="" style="filter:url(#DropShadow);marker-start:none;stroke:#000000;marker-end:url(#Arrow1Lend);fill:none"/>
		<rect height="26.4902" id="" style="stroke:#616161;stroke-width:2.000000px;fill:#eeeeee" width="56.2081" x="81.0" y="154.598"/>
		<text id="" style="fill:#cccccc;font-family: Luxi Sans;font-size:10pt" text-anchor="middle" x="109.10405" y="168.8431">
			<tspan id="" x="109.10405" y="173.8431">
				master
			</tspan>
		</text>
		<path d="M 119.112,181.903 L 133.067,201.508" id="" style="filter:url(#DropShadow);marker-start:none;stroke:#000000;marker-end:url(#Arrow1Lend);fill:none"/>
		<rect height="26.4902" id="" style="stroke:#616161;stroke-width:2.000000px;fill:#eeeeee" width="85.698" x="349.214" y="276.118"/>
		<text id="" style="fill:#cccccc;font-family: Luxi Sans;font-size:10pt" text-anchor="middle" x="392.063" y="290.3631">
			<tspan id="" x="392.063" y="295.3631">
				tv/rebase-stat
			</tspan>
		</text>
		<rect height="25.1959" id="" style="stroke:#616161;stroke-width:3.000000px;fill:#d3f5d6" width="34.7993" x="197.357" y="322.452"/>
		<text id="" style="fill:#000000;font-family: Courier New;font-size:12pt" text-anchor="middle" x="214.75665" y="336.04995">
			<tspan id="" x="214.75665" y="342.04995">
				C5
			</tspan>
		</text>
		<rect height="25.1959" id="" style="stroke:#616161;stroke-width:3.000000px;fill:#d3f5d6" width="34.7993" x="263.51" y="322.452"/>
		<text id="" style="fill:#000000;font-family: Courier New;font-size:12pt" text-anchor="middle" x="280.90965" y="336.04995">
			<tspan id="" x="280.90965" y="342.04995">
				C6
			</tspan>
		</text>
		<path d="M 262.01,335.05 L 233.656,335.05" id="" style="filter:url(#DropShadow);marker-start:none;stroke:#000000;marker-end:url(#Arrow1Lend);fill:none"/>
		<path d="M 323.268,335.347 L 299.809,335.182" id="" style="filter:url(#DropShadow);marker-start:none;stroke:#000000;marker-end:url(#Arrow1Lend);fill:none"/>
		<rect height="26.4902" id="" style="stroke:#616161;stroke-width:2.000000px;fill:#eeeeee" width="98.0" x="324.268" y="322.452"/>
		<text id="" style="fill:#cccccc;font-family: Luxi Sans;font-size:10pt" text-anchor="middle" x="373.268" y="336.6971">
			<tspan id="" x="373.268" y="341.6971">
				jk/post-checkout
			</tspan>
		</text>
		<path d="M 201.354,321.388 L 176.0,295.544  L 148.674,229.313" id="" style="filter:url(#DropShadow);marker-start:none;stroke:#000000;marker-end:url(#Arrow1Lend);fill:none"/>
		<rect height="26.4902" id="" style="stroke:#616161;stroke-width:2.000000px;fill:#eeeeee" width="85.698" x="363.871" y="108.201"/>
		<text id="" style="fill:#cccccc;font-family: Luxi Sans;font-size:10pt" text-anchor="middle" x="406.72" y="122.4461">
			<tspan id="" x="406.72" y="127.4461">
				js/notes
			</tspan>
		</text>
		<rect height="26.4902" id="" style="stroke:#616161;stroke-width:2.000000px;fill:#eeeeee" width="104.094" x="295.911" y="367.491"/>
		<text id="" style="fill:#cccccc;font-family: Luxi Sans;font-size:10pt" text-anchor="middle" x="347.958" y="381.7361">
			<tspan id="" x="347.958" y="386.7361">
				db/push-cleanup
			</tspan>
		</text>
		<rect height="26.4902" id="" style="stroke:#616161;stroke-width:2.000000px;fill:#eeeeee" width="85.698" x="335.744" y="57.8449"/>
		<text id="" style="fill:#cccccc;font-family: Luxi Sans;font-size:10pt" text-anchor="middle" x="378.593" y="72.09">
			<tspan id="" x="378.593" y="77.09">
				ps/blame
			</tspan>
		</text>
		<rect height="25.1959" id="" style="stroke:#616161;stroke-width:3.000000px;fill:#d3f5d6" width="34.7993" x="169.0" y="368.785"/>
		<text id="" style="fill:#000000;font-family: Courier New;font-size:12pt" text-anchor="middle" x="186.39965" y="382.38295">
			<tspan id="" x="186.39965" y="388.38295">
				C7
			</tspan>
		</text>
		<rect height="25.1959" id="" style="stroke:#616161;stroke-width:3.000000px;fill:#d3f5d6" width="34.7993" x="235.153" y="368.785"/>
		<text id="" style="fill:#000000;font-family: Courier New;font-size:12pt" text-anchor="middle" x="252.55265" y="382.38295">
			<tspan id="" x="252.55265" y="388.38295">
				C8
			</tspan>
		</text>
		<rect height="25.1959" id="" style="stroke:#616161;stroke-width:3.000000px;fill:#d3f5d6" width="41.7238" x="216.797" y="109.495"/>
		<text id="" style="fill:#000000;font-family: Courier New;font-size:12pt" text-anchor="middle" x="237.6589" y="123.09295">
			<tspan id="" x="237.6589" y="129.09295">
				C9
			</tspan>
		</text>
		<rect height="25.1959" id="" style="stroke:#616161;stroke-width:3.000000px;fill:#d3f5d6" width="42.6426" x="289.875" y="109.495"/>
		<text id="" style="fill:#000000;font-family: Courier New;font-size:12pt" text-anchor="middle" x="311.1963" y="123.09295">
			<tspan id="" x="311.1963" y="129.09295">
				C10
			</tspan>
		</text>
		<rect height="25.1959" id="" style="stroke:#616161;stroke-width:3.000000px;fill:#d3f5d6" width="42.6426" x="200.95" y="58.492"/>
		<text id="" style="fill:#000000;font-family: Courier New;font-size:12pt" text-anchor="middle" x="222.2713" y="72.08995">
			<tspan id="" x="222.2713" y="78.08995">
				C11
			</tspan>
		</text>
		<rect height="25.1959" id="" style="stroke:#616161;stroke-width:3.000000px;fill:#d3f5d6" width="42.6426" x="266.383" y="58.492"/>
		<text id="" style="fill:#000000;font-family: Courier New;font-size:12pt" text-anchor="middle" x="287.7043" y="72.08995">
			<tspan id="" x="287.7043" y="78.08995">
				C12
			</tspan>
		</text>
		<path d="M 177.7,367.514 L 148.0,320.166  L 143.589,229.424" id="" style="filter:url(#DropShadow);marker-start:none;stroke:#000000;marker-end:url(#Arrow1Lend);fill:none"/>
		<path d="M 233.653,381.383 L 205.299,381.383" id="" style="filter:url(#DropShadow);marker-start:none;stroke:#000000;marker-end:url(#Arrow1Lend);fill:none"/>
		<path d="M 294.911,381.096 L 271.452,381.255" id="" style="filter:url(#DropShadow);marker-start:none;stroke:#000000;marker-end:url(#Arrow1Lend);fill:none"/>
		<path d="M 215.845,127.413 L 186.0,134.691  L 150.344,201.407" id="" style="filter:url(#DropShadow);marker-start:none;stroke:#000000;marker-end:url(#Arrow1Lend);fill:none"/>
		<path d="M 200.552,78.4047 L 178.0,86.0  L 146.715,201.282" id="" style="filter:url(#DropShadow);marker-start:none;stroke:#000000;marker-end:url(#Arrow1Lend);fill:none"/>
		<path d="M 288.375,122.093 L 260.021,122.093" id="" style="filter:url(#DropShadow);marker-start:none;stroke:#000000;marker-end:url(#Arrow1Lend);fill:none"/>
		<path d="M 264.883,71.09 L 245.093,71.09" id="" style="filter:url(#DropShadow);marker-start:none;stroke:#000000;marker-end:url(#Arrow1Lend);fill:none"/>
		<path d="M 362.871,121.743 L 334.017,121.938" id="" style="filter:url(#DropShadow);marker-start:none;stroke:#000000;marker-end:url(#Arrow1Lend);fill:none"/>
		<path d="M 334.744,71.09 L 310.526,71.09" id="" style="filter:url(#DropShadow);marker-start:none;stroke:#000000;marker-end:url(#Arrow1Lend);fill:none"/>
		<rect height="25.1959" id="" style="stroke:#616161;stroke-width:3.000000px;fill:#adc9b2" width="41.7238" x="382.0" y="220.715"/>
		<text id="" style="fill:#000000;font-family: Courier New;font-size:12pt" text-anchor="middle" x="402.8619" y="234.31295">
			<tspan id="" x="402.8619" y="240.31295">
				C13
			</tspan>
		</text>
		<rect height="25.1959" id="" style="stroke:#616161;stroke-width:3.000000px;fill:#adc9b2" width="41.7238" x="445.0" y="220.715"/>
		<text id="" style="fill:#000000;font-family: Courier New;font-size:12pt" text-anchor="middle" x="465.8619" y="234.31295">
			<tspan id="" x="465.8619" y="240.31295">
				C14
			</tspan>
		</text>
		<rect height="25.1959" id="" style="stroke:#616161;stroke-width:3.000000px;fill:#adc9b2" width="41.7238" x="508.0" y="220.715"/>
		<text id="" style="fill:#000000;font-family: Courier New;font-size:12pt" text-anchor="middle" x="528.8619" y="234.31295">
			<tspan id="" x="528.8619" y="240.31295">
				C15
			</tspan>
		</text>
		<path d="M 443.5,233.313 L 425.224,233.313" id="" style="filter:url(#DropShadow);marker-start:none;stroke:#000000;marker-end:url(#Arrow1Lend);fill:none"/>
		<path d="M 506.5,233.313 L 488.224,233.313" id="" style="filter:url(#DropShadow);marker-start:none;stroke:#000000;marker-end:url(#Arrow1Lend);fill:none"/>
		<path d="M 380.501,233.138 L 235.153,232.0  L 161.618,218.71" id="" style="filter:url(#DropShadow);marker-start:none;stroke:#000000;marker-end:url(#Arrow1Lend);fill:none"/>
		<rect height="25.1959" id="" style="stroke:#616161;stroke-width:3.000000px;fill:#adc9b2" width="41.8483" x="445.0" y="175.675"/>
		<text id="" style="fill:#000000;font-family: Courier New;font-size:12pt" text-anchor="middle" x="465.92415" y="189.27295">
			<tspan id="" x="465.92415" y="195.27295">
				C16
			</tspan>
		</text>
		<rect height="25.1959" id="" style="stroke:#616161;stroke-width:3.000000px;fill:#adc9b2" width="41.8483" x="507.938" y="175.675"/>
		<text id="" style="fill:#000000;font-family: Courier New;font-size:12pt" text-anchor="middle" x="528.86215" y="189.27295">
			<tspan id="" x="528.86215" y="195.27295">
				C17
			</tspan>
		</text>
		<path d="M 443.5,188.246 L 235.153,188.0  L 161.309,209.876" id="" style="filter:url(#DropShadow);marker-start:none;stroke:#000000;marker-end:url(#Arrow1Lend);fill:none"/>
		<path d="M 506.438,188.273 L 488.348,188.273" id="" style="filter:url(#DropShadow);marker-start:none;stroke:#000000;marker-end:url(#Arrow1Lend);fill:none"/>
		<rect height="26.4902" id="" style="stroke:#616161;stroke-width:2.000000px;fill:#eeeeee" width="56.2081" x="576.0" y="220.715"/>
		<text id="" style="fill:#cccccc;font-family: Luxi Sans;font-size:10pt" text-anchor="middle" x="604.10405" y="234.9601">
			<tspan id="" x="604.10405" y="239.9601">
				next
			</tspan>
		</text>
		<rect height="26.4902" id="" style="stroke:#616161;stroke-width:2.000000px;fill:#eeeeee" width="56.2081" x="576.0" y="174.381"/>
		<text id="" style="fill:#cccccc;font-family: Luxi Sans;font-size:10pt" text-anchor="middle" x="604.10405" y="188.6261">
			<tspan id="" x="604.10405" y="193.6261">
				pu
			</tspan>
		</text>
		<path d="M 575.0,233.71 L 551.223,233.505" id="" style="filter:url(#DropShadow);marker-start:none;stroke:#000000;marker-end:url(#Arrow1Lend);fill:none"/>
		<path d="M 575.0,187.876 L 551.286,188.08" id="" style="filter:url(#DropShadow);marker-start:none;stroke:#000000;marker-end:url(#Arrow1Lend);fill:none"/>
	</g>
</svg>
