<?xml version="1.0" ?>
<svg xmlns="http://www.w3.org/2000/svg" xmlns:xlink="http://www.w3.org/1999/xlink">
	<defs>
		<marker id="Arrow1Lend" orient="auto" refX="0.0" refY="0.0" style="overflow:visible;">
			
              
			<path d="M 0.0,0.0 L 5.0,-5.0 L -12.5,0.0 L 5.0,5.0 L 0.0,0.0 z " id="path3666" style="fill-rule:evenodd;stroke:#000000;stroke-width:1.0pt;marker-start:none;" transform="scale(0.8) rotate(180) translate(12.5,0)"/>
			
            
		</marker>
		<filter filterRes="100" id="DropShadow" x="0" y="0">
			
               
			<feGaussianBlur result="MyBlur" stdDeviation="3"/>
			
               
			<feOffset dx="2" dy="4" in="MyBlur" result="movedBlur"/>
			
               
			<feMerge>
				
                   
				<feMergeNode in="movedBlur"/>
				
                   
				<feMergeNode in="SourceGraphic"/>
				
               
			</feMerge>
			
          
		</filter>
	</defs>
	<g style="stroke:#000000;fill:#fff">
		<path d="M 556.572,351.716 L 496.935,332.534" id="" style="filter:url(#DropShadow);stroke:#000000;marker-end:url(#Arrow1Lend);marker-start:none;stroke-width:3.000000px;fill:none"/>
		<path d="M 203.006,314.0 L 144.88,314.0" id="" style="filter:url(#DropShadow);stroke:#000000;marker-end:url(#Arrow1Lend);marker-start:none;stroke-width:3.000000px;fill:none"/>
		<path d="M 381.627,314.0 L 318.386,314.0" id="" style="filter:url(#DropShadow);stroke:#000000;marker-end:url(#Arrow1Lend);marker-start:none;stroke-width:3.000000px;fill:none"/>
		<rect height="55.0" id="" rx="5" ry="5" style="stroke:#28502c;stroke-width:3.000000px;fill:#baffb3" width="112.38" x="383.127" y="286.5"/>
		<text id="" style="fill:#000000;font-family: Geneva;font-size:14pt" text-anchor="middle" x="439.317" y="314.0">
			<tspan id="" x="439.317" y="321.0">
				f30ab
			</tspan>
		</text>
		<rect height="55.0" id="" rx="5" ry="5" style="stroke:#28502c;stroke-width:3.000000px;fill:#baffb3" width="112.38" x="204.506" y="286.5"/>
		<text id="" style="fill:#000000;font-family: Geneva;font-size:14pt" text-anchor="middle" x="260.696" y="314.0">
			<tspan id="" x="260.696" y="321.0">
				34ac2
			</tspan>
		</text>
		<rect height="55.0" id="" rx="5" ry="5" style="stroke:#28502c;stroke-width:3.000000px;fill:#baffb3" width="112.38" x="31.0" y="286.5"/>
		<text id="" style="fill:#000000;font-family: Geneva;font-size:14pt" text-anchor="middle" x="87.19" y="314.0">
			<tspan id="" x="87.19" y="321.0">
				98ca9
			</tspan>
		</text>
		<path d="M 556.572,276.284 L 496.935,295.466" id="" style="filter:url(#DropShadow);stroke:#000000;marker-end:url(#Arrow1Lend);marker-start:none;stroke-width:3.000000px;fill:none"/>
		<rect height="55.0" id="" rx="5" ry="5" style="stroke:#28502c;stroke-width:3.000000px;fill:#baffb3" width="112.38" x="558.0" y="230.25"/>
		<text id="" style="fill:#000000;font-family: Geneva;font-size:14pt" text-anchor="middle" x="614.19" y="257.75">
			<tspan id="" x="614.19" y="264.75">
				c2b9e
			</tspan>
		</text>
		<rect height="55.0" id="" rx="5" ry="5" style="stroke:#28502c;stroke-width:3.000000px;fill:#baffb3" width="112.38" x="558.0" y="342.75"/>
		<text id="" style="fill:#000000;font-family: Geneva;font-size:14pt" text-anchor="middle" x="614.19" y="370.25">
			<tspan id="" x="614.19" y="377.25">
				87ab2
			</tspan>
		</text>
		<path d="M 614.19,78.5 L 614.19,124.0" id="" style="filter:url(#DropShadow);stroke:#000000;marker-end:url(#Arrow1Lend);marker-start:none;stroke-width:3.000000px;fill:none"/>
		<rect height="55.0" id="" rx="5" ry="5" style="stroke:#272525;stroke-width:3.000000px;fill:#484a49" width="112.38" x="558.0" y="22.0"/>
		<text id="" style="fill:#ffffff;font-family: Geneva;font-size:14pt" text-anchor="middle" x="614.19" y="49.5">
			<tspan id="" x="614.19" y="56.5">
				HEAD
			</tspan>
		</text>
		<path d="M 614.19,453.0 L 614.19,399.25" id="" style="filter:url(#DropShadow);stroke:#000000;marker-end:url(#Arrow1Lend);marker-start:none;stroke-width:3.000000px;fill:none"/>
		<rect height="55.0" id="" rx="5" ry="5" style="stroke:#504c4d;stroke-width:3.000000px;fill:#d2d7d5" width="112.38" x="558.0" y="454.5"/>
		<text id="" style="fill:#000000;font-family: Geneva;font-size:14pt" text-anchor="middle" x="614.19" y="482.0">
			<tspan id="" x="614.19" y="489.0">
				testing
			</tspan>
		</text>
		<path d="M 614.19,182.0 L 614.19,228.75" id="" style="filter:url(#DropShadow);stroke:#000000;marker-end:url(#Arrow1Lend);marker-start:none;stroke-width:3.000000px;fill:none"/>
		<rect height="55.0" id="" rx="5" ry="5" style="stroke:#504c4d;stroke-width:3.000000px;fill:#d2d7d5" width="112.38" x="558.0" y="125.5"/>
		<text id="" style="fill:#000000;font-family: Geneva;font-size:14pt" text-anchor="middle" x="614.19" y="153.0">
			<tspan id="" x="614.19" y="160.0">
				master
			</tspan>
		</text>
	</g>
</svg>
